<svg version="1.1" id="Layer_1" xmlns="http://www.w3.org/2000/svg" xmlns:xlink="http://www.w3.org/1999/xlink" x="0px" y="0px"
	 width="100%" viewBox="0 0 262 232" enable-background="new 0 0 262 232" xml:space="preserve">
<path fill="#040404" opacity="1.000000" stroke="none" 
	d="
M263.000000,34.000000 
	C263.000000,100.289536 263.000000,166.579071 263.000000,232.934296 
	C175.768173,232.934296 88.536285,232.934296 1.000000,232.934296 
	C1.000000,165.979416 1.000000,98.958366 1.184518,31.189930 
	C11.246024,20.628363 21.123013,10.814181 31.000000,1.000000 
	C97.020897,1.000000 163.041794,1.000000 229.646866,1.316092 
	C239.199799,10.282010 248.191986,18.907764 257.119812,27.599615 
	C259.192444,29.617455 261.045776,31.860558 263.000000,34.000000 
M202.876617,208.669159 
	C203.164627,209.625626 203.333038,210.640060 203.763123,211.527695 
	C205.046555,214.176529 203.998871,219.659866 208.966202,218.176926 
	C213.353699,216.867050 210.492615,212.671326 209.734940,209.955215 
	C201.413284,180.123505 192.924515,150.338425 184.496292,120.536392 
	C183.201126,115.956696 181.982864,111.355255 180.596741,106.279442 
	C183.168945,106.279442 184.985596,106.279716 186.802231,106.279396 
	C196.965698,106.277565 207.132233,106.395897 217.289169,106.137405 
	C218.729004,106.100761 220.122192,104.230576 221.536987,103.209038 
	C220.103577,102.180954 218.792770,100.828636 217.198563,100.225754 
	C215.886154,99.729439 214.237686,100.120598 212.738159,100.120514 
	C204.804352,100.120087 196.870560,100.120308 189.070374,100.120308 
	C189.070374,95.369896 189.070374,91.302330 189.070374,88.203140 
	C195.216019,88.203140 201.157562,88.926895 206.819305,87.979080 
	C211.531418,87.190231 215.201752,83.558350 215.762054,78.347664 
	C216.331284,73.054108 213.142944,69.664688 208.803558,67.195564 
	C208.113327,66.802834 207.476776,66.315735 206.891998,65.923630 
	C208.727005,59.185829 207.563660,56.721214 201.704300,53.594856 
	C200.385178,52.891014 199.171448,51.613846 198.409042,50.308640 
	C195.392136,45.143829 190.814789,42.978188 185.068253,43.145901 
	C179.463776,43.309464 175.257095,45.807568 172.727722,51.019661 
	C172.163864,52.181561 171.006699,53.401470 169.834091,53.865692 
	C162.404877,56.806858 161.129639,58.743187 162.027405,66.510185 
	C152.981949,72.490128 151.207397,80.087845 158.155029,85.223053 
	C161.181458,87.459984 165.338867,88.834221 169.117722,89.198364 
	C172.910919,89.563896 176.872269,88.184769 180.777039,87.567543 
	C180.777039,91.497345 180.777039,95.696785 180.777039,100.120308 
	C178.589050,100.120308 176.770157,100.120308 174.951279,100.120308 
	C128.632492,100.120331 82.313698,100.120323 35.994904,100.120567 
	C34.828606,100.120575 33.517822,99.784279 32.529964,100.204941 
	C31.058907,100.831360 29.815859,101.993225 28.475786,102.927238 
	C29.831596,104.040009 31.142939,106.044083 32.550766,106.114334 
	C39.365170,106.454323 46.205490,106.275330 53.036625,106.279190 
	C55.765793,106.280731 58.494961,106.279442 61.612545,106.279442 
	C61.208527,108.115364 61.048069,109.078094 60.783806,110.011429 
	C52.618568,138.849533 44.438782,167.683517 36.273037,196.521484 
	C34.639832,202.289261 32.880699,208.031860 31.579229,213.875076 
	C31.286030,215.191467 32.665352,216.880386 33.274742,218.397812 
	C34.640491,217.515930 36.112858,216.755768 37.322712,215.695938 
	C37.851852,215.232452 37.853153,214.158676 38.078938,213.357742 
	C45.397816,187.395233 52.702980,161.428864 60.038261,135.470993 
	C62.783081,125.757736 65.597435,116.064117 68.298004,106.647713 
	C78.024498,106.647713 87.088593,106.647713 96.411530,106.647713 
	C96.295044,108.167938 96.240089,109.305763 96.116554,110.436096 
	C92.406746,144.382187 88.679222,178.326324 84.998184,212.275528 
	C84.741203,214.645630 83.711205,217.943359 87.276230,218.384811 
	C91.135948,218.862747 90.901085,215.343155 91.185532,212.759079 
	C93.810028,188.916504 96.397919,165.069901 99.028648,141.228027 
	C100.301895,129.688858 101.643799,118.157272 102.968651,106.498734 
	C115.279549,106.498734 127.049942,106.498734 138.956635,106.498734 
	C139.230530,107.625267 139.569992,108.564072 139.677063,109.528664 
	C142.470718,134.694244 145.244003,159.862076 148.012115,185.030487 
	C149.068344,194.634064 150.082870,204.242294 151.162704,213.843201 
	C151.420883,216.138748 151.540726,219.187576 154.856689,218.308609 
	C156.059509,217.989761 156.604218,215.119980 157.395126,213.389435 
	C157.512512,213.132584 157.324432,212.739609 157.288025,212.408493 
	C154.339447,185.584488 151.385330,158.761093 148.448196,131.935837 
	C147.529938,123.549271 146.657806,115.157654 145.735962,106.499855 
	C155.424927,106.499855 164.536438,106.499855 173.992355,106.499855 
	C183.558731,140.314026 193.117706,174.101974 202.876617,208.669159 
M62.811852,48.392345 
	C64.025871,60.433556 73.071159,68.734428 84.274940,68.089035 
	C95.192284,67.460136 104.136093,57.913151 103.745499,47.305351 
	C103.335739,36.176594 94.514214,27.345747 83.611443,27.150019 
	C72.245094,26.945972 63.386482,35.604542 62.811852,48.392345 
M124.102539,218.425430 
	C124.139282,213.270828 125.683517,209.453156 130.636154,206.463959 
	C134.645645,204.044006 136.215851,199.055161 136.864914,194.320938 
	C136.503784,193.825974 136.142670,193.331009 135.781555,192.836060 
	C131.291092,194.874054 126.800636,196.912033 121.965096,199.106644 
	C119.005539,193.949341 113.761360,190.849670 106.759857,189.716568 
	C106.342422,196.407486 108.582527,201.520096 113.775505,204.159317 
	C117.930099,206.270782 118.552628,208.997040 118.179085,212.835922 
	C118.082848,213.824951 118.105591,214.836441 118.181465,215.829376 
	C118.458412,219.453598 119.869911,221.248886 124.102539,218.425430 
M8.700089,202.832901 
	C13.990091,205.177536 15.980878,209.070328 15.243304,214.907684 
	C15.047296,216.458954 17.235039,218.311417 18.328316,220.025589 
	C19.402718,218.285919 20.565041,216.593246 21.526983,214.793472 
	C22.505775,212.962189 22.773224,210.174194 24.245756,209.285049 
	C30.024925,205.795502 32.417763,200.505142 34.061840,193.998367 
	C27.808973,193.277145 23.517765,196.090576 19.466747,200.172363 
	C16.009485,193.923569 10.687329,190.908615 3.623455,189.647507 
	C3.349823,194.974503 4.788093,198.990387 8.700089,202.832901 
M229.901428,213.624054 
	C230.966141,212.028214 231.683701,209.910324 233.157776,208.930115 
	C238.524063,205.361679 240.948212,200.278778 242.416473,193.263809 
	C239.137985,194.076904 236.502090,194.368042 234.200623,195.402954 
	C231.878677,196.447021 229.888596,198.229111 227.635162,199.768448 
	C224.073441,193.906708 218.989319,190.721252 212.078354,189.807419 
	C211.561661,195.980804 213.500839,201.164078 218.472092,203.725906 
	C223.366455,206.248123 223.804352,209.658279 223.503708,214.164780 
	C223.344147,216.556427 222.911575,219.783981 226.516449,219.916733 
	C230.093628,220.048447 229.884140,216.993713 229.901428,213.624054 
M173.112259,215.083832 
	C174.288254,216.722610 175.464249,218.361374 176.640244,220.000122 
	C177.648758,218.355301 179.427521,216.742920 179.498459,215.058609 
	C179.628738,211.965897 180.256729,210.044556 183.256973,208.402084 
	C188.678513,205.434143 190.729416,200.054581 191.949326,194.406509 
	C191.606186,193.880814 191.263046,193.355133 190.919907,192.829437 
	C186.330338,194.908386 181.740753,196.987335 176.989563,199.139496 
	C173.824829,193.919724 168.749146,190.767334 161.807251,189.814499 
	C161.383255,195.817139 163.028748,201.017059 167.855759,203.444809 
	C172.945099,206.004471 173.615494,209.525787 173.112259,215.083832 
M51.426590,197.796371 
	C52.845318,199.616119 53.896088,202.316940 55.751240,203.091675 
	C61.497803,205.491592 62.025665,209.786163 61.779324,215.078125 
	C61.704967,216.675476 63.366730,219.567444 64.588234,219.774765 
	C67.755020,220.312256 68.285980,217.494980 67.951225,215.063644 
	C67.462196,211.511932 69.204208,209.892487 72.042862,208.168411 
	C77.138908,205.073273 79.270828,199.966370 80.250916,194.404907 
	C79.897797,193.888718 79.544670,193.372543 79.191551,192.856369 
	C74.739395,194.873917 70.287239,196.891479 65.606071,199.012802 
	C59.637035,192.286713 56.368660,190.352737 49.757862,190.321228 
	C50.219410,192.653748 50.658028,194.870361 51.426590,197.796371 
M122.617577,167.363770 
	C121.408562,166.996307 120.077095,166.839828 119.013199,166.222336 
	C115.653595,164.272415 112.394203,162.149826 109.096039,160.094040 
	C108.485596,160.694702 107.875145,161.295364 107.264702,161.896042 
	C108.876579,164.969849 109.752754,169.058334 112.269989,170.883499 
	C116.203865,173.735840 118.071770,176.582733 117.556755,181.394562 
	C117.437988,182.504150 119.103302,183.804688 119.947617,185.017380 
	C120.844765,183.841446 122.574677,182.596863 122.484451,181.502319 
	C122.202492,178.082001 123.944908,176.609116 126.514740,174.913269 
	C130.224274,172.465302 131.837341,168.554398 132.462967,162.768936 
	C128.737823,164.410461 125.967163,165.631393 122.617577,167.363770 
M211.193008,170.262146 
	C215.632553,172.799973 218.489548,176.082077 217.420090,181.744095 
	C217.247360,182.658493 218.879547,183.913803 219.677414,185.011536 
	C220.614685,183.897537 222.396210,182.732895 222.332962,181.678955 
	C222.133026,178.347198 223.612427,176.703400 226.274963,175.002975 
	C230.040054,172.598373 231.667450,168.664642 232.434708,162.595383 
	C227.726578,164.754288 224.151077,166.393814 221.253922,167.722305 
	C217.194534,165.108551 213.171097,162.517960 209.147675,159.927368 
	C208.578445,160.399628 208.009216,160.871902 207.439987,161.344162 
	C208.533737,164.122116 209.627472,166.900070 211.193008,170.262146 
M62.582821,168.752960 
	C66.501305,172.645615 72.079308,175.608368 70.149391,182.767136 
	C70.023308,183.234833 71.859314,184.231491 72.782639,184.982101 
	C73.515320,184.013687 74.964958,182.955414 74.856796,182.092392 
	C74.384178,178.321518 76.704979,176.849304 79.146317,174.628784 
	C81.945702,172.082611 83.510445,168.179016 85.611549,164.865112 
	C85.064293,164.280563 84.517036,163.696014 83.969788,163.111450 
	C80.378532,164.738373 76.787285,166.365295 73.757713,167.737778 
	C69.849464,165.192322 65.834953,162.577667 61.820438,159.963013 
	C61.333130,160.381149 60.845825,160.799286 60.358521,161.217438 
	C60.967358,163.520355 61.576195,165.823257 62.582821,168.752960 
M14.742914,160.828033 
	C12.968896,164.382980 13.977049,169.179169 18.213490,171.546738 
	C22.243942,173.799164 23.341822,176.617889 22.813036,180.726242 
	C22.729895,181.372208 22.648211,182.195740 22.963293,182.676956 
	C23.537598,183.554123 24.370197,184.788666 25.168470,184.845673 
	C25.978405,184.903503 27.692797,183.580429 27.611355,183.098846 
	C26.750189,178.006531 30.692036,176.201843 33.480621,173.295700 
	C35.688808,170.994415 36.710091,167.554230 38.258427,164.619766 
	C37.794792,164.119522 37.331158,163.619278 36.867523,163.119034 
	C33.288910,164.730576 29.710291,166.342117 26.879171,167.617050 
	C23.041813,165.370590 19.268007,163.161331 14.742914,160.828033 
M159.248779,165.719864 
	C160.267181,167.407272 160.884232,169.805328 162.378891,170.649429 
	C166.945877,173.228607 168.844742,176.652237 168.103119,181.871658 
	C167.971252,182.799759 169.616364,183.980362 170.440918,185.044373 
	C171.309021,183.855469 172.939072,182.639313 172.897736,181.482925 
	C172.787842,178.409958 173.973404,176.791840 176.557800,175.226868 
	C180.546280,172.811707 182.247482,168.784973 183.077713,162.606277 
	C178.386597,164.739136 174.799103,166.370209 171.850067,167.711014 
	C167.864456,165.153687 163.863327,162.586380 158.720032,159.286224 
	C158.897247,162.385941 158.969666,163.652603 159.248779,165.719864 
M232.469757,34.397869 
	C232.961655,34.473320 233.498856,34.714668 233.937424,34.594883 
	C235.638504,34.130264 237.308197,33.550770 238.989578,33.014042 
	C237.534195,31.846931 236.120529,29.757168 234.615463,29.689154 
	C230.433578,29.500168 226.213715,30.151754 222.207489,30.456184 
	C219.313721,28.560471 216.456421,26.239868 213.213821,24.768343 
	C211.760773,24.108942 209.535690,25.150736 207.660950,25.420542 
	C208.806763,26.743196 209.701401,28.565605 211.146851,29.292042 
	C215.025711,31.241428 218.530899,33.133919 218.339859,38.323910 
	C218.308029,39.188400 219.305374,40.606625 220.097763,40.836632 
	C220.849869,41.054943 222.535049,40.271645 222.812408,39.546989 
	C224.400070,35.399067 227.705475,34.465565 232.469757,34.397869 
M157.465424,47.514236 
	C158.149811,46.862324 159.472305,46.153446 159.419983,45.567295 
	C158.889709,39.627327 162.811478,37.549503 167.322830,35.568939 
	C168.552612,35.029057 169.139923,33.025806 170.022079,31.694141 
	C168.422623,31.440189 166.468155,30.475855 165.289856,31.064684 
	C161.668137,32.874569 158.343567,35.279091 156.035629,36.737217 
	C150.629272,36.568245 146.094162,36.255634 141.577087,36.424656 
	C140.635818,36.459885 139.761200,38.276485 138.855865,39.272144 
	C139.800140,39.972679 140.916534,41.426224 141.661758,41.255894 
	C148.260590,39.747597 153.127670,42.026604 157.465424,47.514236 
M220.469254,139.624985 
	C217.721863,140.535843 214.974457,141.446716 212.452789,142.282745 
	C209.439331,140.408356 206.223923,138.408356 203.008530,136.408340 
	C202.528229,136.829865 202.047928,137.251373 201.567627,137.672897 
	C202.570511,139.965424 202.963684,143.066360 204.705063,144.379745 
	C208.173477,146.995682 210.168228,149.729324 209.658615,154.169144 
	C209.588440,154.780609 210.697983,155.997726 211.371689,156.085236 
	C211.982422,156.164566 213.392883,155.006592 213.335388,154.528168 
	C212.898102,150.889832 215.673431,149.579361 217.645844,147.412674 
	C219.385040,145.502167 219.988022,142.557312 220.469254,139.624985 
M118.217140,140.229248 
	C115.969315,139.003983 113.721489,137.778717 111.473671,136.553436 
	C111.049217,136.901215 110.624756,137.248993 110.200302,137.596756 
	C111.154045,139.900284 111.492455,142.957108 113.193085,144.346237 
	C116.461067,147.015640 118.886742,149.531174 118.151375,154.089722 
	C118.055199,154.685928 119.095573,155.733276 119.840034,156.088303 
	C120.233315,156.275864 121.744995,155.303467 121.697845,155.053772 
	C120.819626,150.403290 125.111015,149.185333 127.137978,146.454132 
	C128.498383,144.621063 129.218445,142.312775 130.225021,140.217117 
	C129.853973,139.879272 129.482910,139.541443 129.111862,139.203598 
	C127.046898,140.029388 124.654816,140.447800 122.996193,141.779648 
	C120.700729,143.622879 119.869118,142.171280 118.217140,140.229248 
M82.939178,145.380814 
	C83.671371,143.663132 84.403557,141.945435 85.135750,140.227753 
	C84.793167,139.868546 84.450592,139.509338 84.108009,139.150131 
	C81.208313,140.351334 78.308609,141.552536 76.232101,142.412720 
	C72.729645,140.252823 69.645798,138.351059 66.561951,136.449295 
	C66.036751,136.895386 65.511551,137.341461 64.986351,137.787552 
	C66.135269,140.169022 66.705627,143.264664 68.564110,144.770233 
	C71.609932,147.237671 73.830887,149.462067 73.093002,153.701172 
	C72.970573,154.404495 74.159058,155.462952 74.948227,156.102524 
	C75.129700,156.249588 76.770844,155.222198 76.714302,154.943298 
	C75.710892,149.994110 80.540855,148.914215 82.939178,145.380814 
M160.080368,138.144897 
	C158.775421,137.746841 157.470459,137.348785 156.165512,136.950745 
	C155.834045,137.264862 155.502594,137.578995 155.171127,137.893112 
	C156.227753,140.175705 156.686234,143.314651 158.467941,144.559174 
	C161.968262,147.004120 163.719315,149.622665 163.140778,153.888290 
	C163.047852,154.573517 163.962540,155.831299 164.655777,156.050049 
	C165.216003,156.226822 166.849533,155.143692 166.801132,154.779831 
	C166.259613,150.708511 169.543915,149.322189 171.696304,146.981842 
	C173.349182,145.184647 174.171829,142.623917 175.363693,140.402756 
	C175.002686,139.997040 174.641663,139.591339 174.280655,139.185623 
	C171.379120,140.343979 168.477585,141.502335 165.795624,142.573029 
	C164.078735,141.196472 162.410461,139.858917 160.080368,138.144897 
M22.028942,143.381546 
	C25.021086,146.394867 29.524281,148.532928 28.020226,154.140396 
	C27.888792,154.630417 29.127516,155.487930 29.729813,156.174759 
	C30.487394,155.471420 31.953640,154.687180 31.884125,154.078278 
	C31.515259,150.847305 33.768959,149.661957 35.668140,147.803513 
	C37.651459,145.862762 38.790428,143.059128 40.298515,140.632721 
	C39.930088,140.171188 39.561657,139.709656 39.193226,139.248123 
	C36.294094,140.366852 33.394962,141.485596 31.102732,142.370132 
	C27.785620,140.345688 24.614582,138.410385 21.443542,136.475082 
	C21.061905,136.872574 20.680267,137.270065 20.298630,137.667557 
	C20.756073,139.356384 21.213518,141.045212 22.028942,143.381546 
M255.625473,45.174351 
	C256.171783,43.871582 256.718109,42.568810 257.264404,41.266037 
	C256.096802,41.022301 254.519592,40.167271 253.826477,40.631680 
	C248.357773,44.295975 242.649628,46.706833 235.847992,46.043289 
	C235.078094,45.968185 234.108780,47.937038 233.231934,48.958111 
	C234.382690,49.619923 235.567871,50.892502 236.677841,50.829975 
	C240.123535,50.635864 243.088654,50.597530 245.419037,53.966736 
	C247.050217,56.325066 249.495499,55.309063 249.484085,52.792282 
	C249.465240,48.640869 251.679977,46.830601 255.625473,45.174351 
M56.796921,25.696095 
	C58.439789,27.326534 59.881088,29.277557 61.793175,30.479832 
	C63.172424,31.347071 65.178215,31.217859 66.904564,31.533081 
	C66.611298,29.676096 66.821053,27.504261 65.903358,26.038122 
	C64.622620,23.991970 62.623455,22.319784 60.704391,20.768869 
	C58.511688,18.996815 56.554028,14.387861 53.226913,17.711367 
	C49.791988,21.142563 54.802635,22.816339 56.796921,25.696095 
M40.635590,48.360287 
	C41.097443,49.008083 41.538502,50.201519 42.024342,50.220036 
	C47.418987,50.425671 52.824066,50.557789 58.215820,50.383923 
	C58.883797,50.362385 60.059669,48.397842 59.967113,47.432728 
	C59.873497,46.456596 58.531811,44.860516 57.675114,44.819309 
	C52.747116,44.582260 47.793633,44.596760 42.867767,44.869198 
	C42.052265,44.914299 41.330353,46.651634 40.635590,48.360287 
M121.862022,50.814941 
	C123.201775,49.676723 124.541527,48.538506 125.881279,47.400280 
	C124.382484,46.451313 122.956429,44.863396 121.370163,44.682808 
	C117.769005,44.272831 114.051903,44.254753 110.458702,44.698662 
	C108.945526,44.885601 107.626236,46.641933 106.218811,47.684849 
	C107.491333,48.723751 108.676384,50.494675 110.053375,50.659210 
	C113.650688,51.089046 117.331955,50.816128 121.862022,50.814941 
M85.983948,6.699800 
	C82.402283,4.040131 80.367439,4.628366 80.133247,8.632989 
	C79.890816,12.778479 79.870293,16.968567 80.227798,21.098019 
	C80.333389,22.317623 82.049629,23.397787 83.027771,24.541851 
	C84.119247,23.358086 86.049522,22.241600 86.150841,20.978413 
	C86.508553,16.518612 86.239746,12.008558 85.983948,6.699800 
M212.858383,117.355515 
	C210.308029,117.833427 207.757690,118.311340 205.382156,118.756493 
	C202.972275,117.397118 200.396164,115.943977 197.820053,114.490837 
	C197.454041,114.882225 197.088028,115.273605 196.722015,115.664993 
	C199.468750,120.647049 202.215500,125.629112 205.167160,130.982864 
	C206.397202,128.640717 207.363632,126.553665 208.552475,124.602127 
	C209.900635,122.389076 211.448044,120.297401 212.858383,117.355515 
M46.360821,116.821007 
	C44.398052,117.619415 42.435287,118.417824 40.826424,119.072273 
	C38.151096,117.557449 35.476784,116.043205 32.802475,114.528954 
	C32.267445,115.114929 31.732418,115.700912 31.197390,116.286888 
	C33.030998,118.506142 35.213505,120.529892 36.598080,123.000763 
	C37.928368,125.374756 38.432240,128.211838 39.316071,130.896500 
	C42.048470,127.287697 44.463791,124.413498 46.471912,121.278473 
	C47.199657,120.142326 46.953533,118.382370 46.360821,116.821007 
M73.558678,115.015411 
	C73.627869,116.403442 73.133446,118.406250 73.862450,119.074585 
	C77.275681,122.203812 79.270111,125.956810 80.163216,130.413635 
	C80.182007,130.507370 80.756454,130.489761 80.989624,130.515167 
	C82.305191,128.395096 83.557198,126.290085 84.896790,124.242393 
	C86.336273,122.042023 87.858017,119.895454 89.343864,117.725418 
	C88.940399,117.291954 88.536926,116.858498 88.133461,116.425041 
	C85.844978,117.388123 83.556496,118.351204 81.728500,119.120499 
	C79.165596,117.686111 76.755569,116.337273 73.558678,115.015411 
M63.457001,71.919495 
	C64.403076,70.989227 65.759567,70.218040 66.196625,69.090469 
	C66.813423,67.499191 66.750000,65.644241 66.977379,63.902012 
	C65.263550,64.134521 63.088757,63.787754 61.926132,64.712936 
	C58.959991,67.073303 56.211819,69.817192 53.867336,72.794220 
	C52.953259,73.954926 53.354733,76.151657 53.156994,77.876488 
	C54.888824,77.577446 56.878654,77.711060 58.287766,76.870811 
	C60.085163,75.799026 61.413326,73.940315 63.457001,71.919495 
M167.173584,123.889793 
	C168.465927,121.776123 169.758255,119.662453 171.050583,117.548782 
	C170.695053,117.181221 170.339523,116.813667 169.983994,116.446106 
	C167.665604,117.396736 165.347198,118.347374 163.569016,119.076492 
	C160.712021,117.440041 158.132889,115.962753 155.553757,114.485458 
	C155.147293,114.864883 154.740845,115.244308 154.334396,115.623734 
	C155.192612,117.441566 155.593918,119.840210 157.007431,120.952187 
	C159.669769,123.046562 161.539673,125.061890 160.907013,128.696762 
	C160.815857,129.220490 161.741913,129.921280 162.197220,130.540131 
	C162.860458,129.957932 163.691833,129.484024 164.151306,128.770599 
	C165.059143,127.360992 165.761185,125.818840 167.173584,123.889793 
M119.378059,123.482719 
	C119.816086,125.894524 120.254112,128.306320 120.905617,131.893555 
	C124.526878,126.303368 127.332428,121.972412 130.137985,117.641457 
	C129.770096,117.234428 129.402206,116.827400 129.034332,116.420372 
	C126.736511,117.397034 124.438698,118.373695 122.664864,119.127640 
	C119.830681,117.468735 117.244514,115.955002 114.056190,114.088814 
	C113.658127,118.978645 115.579536,121.360580 119.378059,123.482719 
M105.283951,30.043760 
	C107.845230,27.471882 110.623528,25.071020 112.855003,22.239256 
	C113.682892,21.188660 113.228127,19.127302 113.358299,17.526890 
	C111.748199,17.682238 109.679268,17.259449 108.615746,18.103498 
	C105.660751,20.448671 102.908089,23.144678 100.524399,26.068113 
	C99.525627,27.293039 99.659149,29.441212 99.277885,31.169640 
	C101.106422,30.974510 102.934959,30.779379 105.283951,30.043760 
M105.326370,74.174088 
	C106.275780,75.109772 107.070824,76.433228 108.211884,76.887497 
	C109.802849,77.520859 111.652534,77.504349 113.391495,77.765953 
	C113.103699,76.030975 113.381157,73.837418 112.418060,72.650307 
	C109.912491,69.561943 107.004288,66.744812 103.942505,64.197075 
	C103.030144,63.437893 101.078110,63.928135 99.602440,63.845909 
	C99.581604,65.346169 98.982101,67.224251 99.662659,68.266541 
	C101.001427,70.316925 103.051247,71.903030 105.326370,74.174088 
M86.330940,81.460068 
	C86.327530,79.310394 86.706100,77.064819 86.198174,75.041817 
	C85.801796,73.463112 84.303925,72.160965 83.295525,70.735916 
	C82.219948,72.104530 80.548492,73.340309 80.206932,74.872559 
	C79.680061,77.236046 79.795448,79.839607 80.131393,82.273293 
	C80.526329,85.134277 78.096031,90.102409 83.385704,89.990807 
	C88.154945,89.890190 85.668938,85.140205 86.330940,81.460068 
z"/>
<path fill="#ECECEC" opacity="1.000000" stroke="none" 
	d="
M263.000000,33.541931 
	C261.045776,31.860558 259.192444,29.617455 257.119812,27.599615 
	C248.191986,18.907764 239.199799,10.282010 230.115524,1.316092 
	C233.361282,1.000000 236.722580,1.000000 240.239578,1.266340 
	C247.429977,8.705844 254.456955,15.886642 261.532440,23.019331 
	C261.771851,23.260658 262.499786,23.017391 263.000000,23.000000 
	C263.000000,26.361288 263.000000,29.722574 263.000000,33.541931 
z"/>
<path fill="#040404" opacity="1.000000" stroke="none" 
	d="
M263.000000,22.531219 
	C262.499786,23.017391 261.771851,23.260658 261.532440,23.019331 
	C254.456955,15.886642 247.429977,8.705844 240.697647,1.266340 
	C248.259567,1.000000 255.519150,1.000000 263.000000,1.000000 
	C263.000000,8.019269 263.000000,15.040852 263.000000,22.531219 
z"/>
<path fill="#ECECEC" opacity="1.000000" stroke="none" 
	d="
M30.541931,1.000000 
	C21.123013,10.814181 11.246024,20.628363 1.184518,30.721272 
	C1.000000,27.638712 1.000000,24.277426 1.287199,20.724428 
	C7.358875,14.853002 13.164611,9.194538 18.896008,3.461753 
	C19.490255,2.867362 19.642611,1.831190 20.000000,1.000000 
	C23.361288,1.000000 26.722574,1.000000 30.541931,1.000000 
z"/>
<path fill="#070707" opacity="1.000000" stroke="none" 
	d="
M19.530624,1.000000 
	C19.642611,1.831190 19.490255,2.867362 18.896008,3.461753 
	C13.164611,9.194538 7.358875,14.853002 1.287199,20.266359 
	C1.000000,13.740766 1.000000,7.481532 1.000000,1.000000 
	C7.018606,1.000000 13.039927,1.000000 19.530624,1.000000 
z"/>
<path fill="#F3F3F3" opacity="1.000000" stroke="none" 
	d="
M202.776642,208.279541 
	C193.117706,174.101974 183.558731,140.314026 173.992355,106.499855 
	C164.536438,106.499855 155.424927,106.499855 145.735962,106.499855 
	C146.657806,115.157654 147.529938,123.549271 148.448196,131.935837 
	C151.385330,158.761093 154.339447,185.584488 157.288025,212.408493 
	C157.324432,212.739609 157.512512,213.132584 157.395126,213.389435 
	C156.604218,215.119980 156.059509,217.989761 154.856689,218.308609 
	C151.540726,219.187576 151.420883,216.138748 151.162704,213.843201 
	C150.082870,204.242294 149.068344,194.634064 148.012115,185.030487 
	C145.244003,159.862076 142.470718,134.694244 139.677063,109.528664 
	C139.569992,108.564072 139.230530,107.625267 138.956635,106.498734 
	C127.049942,106.498734 115.279549,106.498734 102.968651,106.498734 
	C101.643799,118.157272 100.301895,129.688858 99.028648,141.228027 
	C96.397919,165.069901 93.810028,188.916504 91.185532,212.759079 
	C90.901085,215.343155 91.135948,218.862747 87.276230,218.384811 
	C83.711205,217.943359 84.741203,214.645630 84.998184,212.275528 
	C88.679222,178.326324 92.406746,144.382187 96.116554,110.436096 
	C96.240089,109.305763 96.295044,108.167938 96.411530,106.647713 
	C87.088593,106.647713 78.024498,106.647713 68.298004,106.647713 
	C65.597435,116.064117 62.783081,125.757736 60.038261,135.470993 
	C52.702980,161.428864 45.397816,187.395233 38.078938,213.357742 
	C37.853153,214.158676 37.851852,215.232452 37.322712,215.695938 
	C36.112858,216.755768 34.640491,217.515930 33.274742,218.397812 
	C32.665352,216.880386 31.286030,215.191467 31.579229,213.875076 
	C32.880699,208.031860 34.639832,202.289261 36.273037,196.521484 
	C44.438782,167.683517 52.618568,138.849533 60.783806,110.011429 
	C61.048069,109.078094 61.208527,108.115364 61.612545,106.279442 
	C58.494961,106.279442 55.765793,106.280731 53.036625,106.279190 
	C46.205490,106.275330 39.365170,106.454323 32.550766,106.114334 
	C31.142939,106.044083 29.831596,104.040009 28.475784,102.927238 
	C29.815859,101.993225 31.058907,100.831360 32.529964,100.204941 
	C33.517822,99.784279 34.828606,100.120575 35.994904,100.120567 
	C82.313698,100.120323 128.632492,100.120331 174.951279,100.120308 
	C176.770157,100.120308 178.589050,100.120308 180.777039,100.120308 
	C180.777039,95.696785 180.777039,91.497345 180.777039,87.567543 
	C176.872269,88.184769 172.910919,89.563896 169.117722,89.198364 
	C165.338867,88.834221 161.181458,87.459984 158.155029,85.223053 
	C151.207397,80.087845 152.981949,72.490128 162.027405,66.510185 
	C161.129639,58.743187 162.404877,56.806858 169.834091,53.865692 
	C171.006699,53.401470 172.163864,52.181561 172.727722,51.019661 
	C175.257095,45.807568 179.463776,43.309464 185.068253,43.145901 
	C190.814789,42.978188 195.392136,45.143829 198.409042,50.308640 
	C199.171448,51.613846 200.385178,52.891014 201.704300,53.594856 
	C207.563660,56.721214 208.727005,59.185829 206.891998,65.923630 
	C207.476776,66.315735 208.113327,66.802834 208.803558,67.195564 
	C213.142944,69.664688 216.331284,73.054108 215.762054,78.347664 
	C215.201752,83.558350 211.531418,87.190231 206.819305,87.979080 
	C201.157562,88.926895 195.216019,88.203140 189.070374,88.203140 
	C189.070374,91.302330 189.070374,95.369896 189.070374,100.120308 
	C196.870560,100.120308 204.804352,100.120087 212.738159,100.120514 
	C214.237686,100.120598 215.886154,99.729439 217.198563,100.225754 
	C218.792770,100.828636 220.103577,102.180954 221.536987,103.209038 
	C220.122192,104.230576 218.729004,106.100761 217.289169,106.137405 
	C207.132233,106.395897 196.965698,106.277565 186.802231,106.279396 
	C184.985596,106.279716 183.168945,106.279442 180.596741,106.279442 
	C181.982864,111.355255 183.201126,115.956696 184.496292,120.536392 
	C192.924515,150.338425 201.413284,180.123505 209.734940,209.955215 
	C210.492615,212.671326 213.353699,216.867050 208.966202,218.176926 
	C203.998871,219.659866 205.046555,214.176529 203.763123,211.527695 
	C203.333038,210.640060 203.164627,209.625626 202.776642,208.279541 
z"/>
<path fill="#E9E9E9" opacity="1.000000" stroke="none" 
	d="
M62.800926,47.946815 
	C63.386482,35.604542 72.245094,26.945972 83.611443,27.150019 
	C94.514214,27.345747 103.335739,36.176594 103.745499,47.305351 
	C104.136093,57.913151 95.192284,67.460136 84.274940,68.089035 
	C73.071159,68.734428 64.025871,60.433556 62.800926,47.946815 
M72.856812,36.287121 
	C66.253838,43.806526 66.216713,52.712391 72.762665,58.873466 
	C78.642136,64.407249 88.173027,64.260895 93.978241,58.547684 
	C99.739220,52.878002 100.142570,44.046989 94.927948,37.754467 
	C89.668648,31.408049 81.317947,30.657158 72.856812,36.287121 
z"/>
<path fill="#F0F0F0" opacity="1.000000" stroke="none" 
	d="
M123.864616,218.755371 
	C119.869911,221.248886 118.458412,219.453598 118.181465,215.829376 
	C118.105591,214.836441 118.082848,213.824951 118.179085,212.835922 
	C118.552628,208.997040 117.930099,206.270782 113.775505,204.159317 
	C108.582527,201.520096 106.342422,196.407486 106.759857,189.716568 
	C113.761360,190.849670 119.005539,193.949341 121.965096,199.106644 
	C126.800636,196.912033 131.291092,194.874054 135.781555,192.836060 
	C136.142670,193.331009 136.503784,193.825974 136.864914,194.320938 
	C136.215851,199.055161 134.645645,204.044006 130.636154,206.463959 
	C125.683517,209.453156 124.139282,213.270828 123.864616,218.755371 
z"/>
<path fill="#EFEFEF" opacity="1.000000" stroke="none" 
	d="
M8.435516,202.577728 
	C4.788093,198.990387 3.349823,194.974503 3.623455,189.647507 
	C10.687329,190.908615 16.009485,193.923569 19.466747,200.172363 
	C23.517765,196.090576 27.808973,193.277145 34.061840,193.998367 
	C32.417763,200.505142 30.024925,205.795502 24.245756,209.285049 
	C22.773224,210.174194 22.505775,212.962189 21.526983,214.793472 
	C20.565041,216.593246 19.402718,218.285919 18.328312,220.025589 
	C17.235039,218.311417 15.047296,216.458954 15.243304,214.907684 
	C15.980878,209.070328 13.990091,205.177536 8.435516,202.577728 
z"/>
<path fill="#F0F0F0" opacity="1.000000" stroke="none" 
	d="
M229.900787,214.043060 
	C229.884140,216.993713 230.093628,220.048447 226.516449,219.916733 
	C222.911575,219.783981 223.344147,216.556427 223.503708,214.164780 
	C223.804352,209.658279 223.366455,206.248123 218.472092,203.725906 
	C213.500839,201.164078 211.561661,195.980804 212.078354,189.807419 
	C218.989319,190.721252 224.073441,193.906708 227.635162,199.768448 
	C229.888596,198.229111 231.878677,196.447021 234.200623,195.402954 
	C236.502090,194.368042 239.137985,194.076904 242.416473,193.263809 
	C240.948212,200.278778 238.524063,205.361679 233.157776,208.930115 
	C231.683701,209.910324 230.966141,212.028214 229.900787,214.043060 
z"/>
<path fill="#F0F0F0" opacity="1.000000" stroke="none" 
	d="
M173.111282,214.645523 
	C173.615494,209.525787 172.945099,206.004471 167.855759,203.444809 
	C163.028748,201.017059 161.383255,195.817139 161.807251,189.814499 
	C168.749146,190.767334 173.824829,193.919724 176.989563,199.139496 
	C181.740753,196.987335 186.330338,194.908386 190.919907,192.829437 
	C191.263046,193.355133 191.606186,193.880814 191.949326,194.406509 
	C190.729416,200.054581 188.678513,205.434143 183.256973,208.402084 
	C180.256729,210.044556 179.628738,211.965897 179.498459,215.058609 
	C179.427521,216.742920 177.648758,218.355301 176.640259,220.000122 
	C175.464249,218.361374 174.288254,216.722610 173.111282,214.645523 
z"/>
<path fill="#F2F2F2" opacity="1.000000" stroke="none" 
	d="
M51.261620,197.441681 
	C50.658028,194.870361 50.219410,192.653748 49.757862,190.321228 
	C56.368660,190.352737 59.637035,192.286713 65.606071,199.012802 
	C70.287239,196.891479 74.739395,194.873917 79.191551,192.856369 
	C79.544670,193.372543 79.897797,193.888718 80.250916,194.404907 
	C79.270828,199.966370 77.138908,205.073273 72.042862,208.168411 
	C69.204208,209.892487 67.462196,211.511932 67.951225,215.063644 
	C68.285980,217.494980 67.755020,220.312256 64.588234,219.774765 
	C63.366730,219.567444 61.704967,216.675476 61.779324,215.078125 
	C62.025665,209.786163 61.497803,205.491592 55.751240,203.091675 
	C53.896088,202.316940 52.845318,199.616119 51.261620,197.441681 
z"/>
<path fill="#EAEAEA" opacity="1.000000" stroke="none" 
	d="
M122.907043,167.108047 
	C125.967163,165.631393 128.737823,164.410461 132.462967,162.768936 
	C131.837341,168.554398 130.224274,172.465302 126.514740,174.913269 
	C123.944908,176.609116 122.202492,178.082001 122.484451,181.502319 
	C122.574677,182.596863 120.844765,183.841446 119.947617,185.017365 
	C119.103302,183.804688 117.437988,182.504150 117.556755,181.394562 
	C118.071770,176.582733 116.203865,173.735840 112.269989,170.883499 
	C109.752754,169.058334 108.876579,164.969849 107.264702,161.896042 
	C107.875145,161.295364 108.485596,160.694702 109.096039,160.094040 
	C112.394203,162.149826 115.653595,164.272415 119.013199,166.222336 
	C120.077095,166.839828 121.408562,166.996307 122.907043,167.108047 
z"/>
<path fill="#ECECEC" opacity="1.000000" stroke="none" 
	d="
M210.957123,169.970093 
	C209.627472,166.900070 208.533737,164.122116 207.439987,161.344162 
	C208.009216,160.871902 208.578445,160.399628 209.147675,159.927368 
	C213.171097,162.517960 217.194534,165.108551 221.253922,167.722305 
	C224.151077,166.393814 227.726578,164.754288 232.434708,162.595383 
	C231.667450,168.664642 230.040054,172.598373 226.274963,175.002975 
	C223.612427,176.703400 222.133026,178.347198 222.332962,181.678955 
	C222.396210,182.732895 220.614685,183.897537 219.677414,185.011536 
	C218.879547,183.913803 217.247360,182.658493 217.420090,181.744095 
	C218.489548,176.082077 215.632553,172.799973 210.957123,169.970093 
z"/>
<path fill="#EEEEEE" opacity="1.000000" stroke="none" 
	d="
M62.383926,168.439575 
	C61.576195,165.823257 60.967358,163.520355 60.358521,161.217438 
	C60.845825,160.799286 61.333130,160.381149 61.820438,159.963013 
	C65.834953,162.577667 69.849464,165.192322 73.757713,167.737778 
	C76.787285,166.365295 80.378532,164.738373 83.969788,163.111450 
	C84.517036,163.696014 85.064293,164.280563 85.611549,164.865112 
	C83.510445,168.179016 81.945702,172.082611 79.146317,174.628784 
	C76.704979,176.849304 74.384178,178.321518 74.856796,182.092392 
	C74.964958,182.955414 73.515320,184.013687 72.782639,184.982101 
	C71.859314,184.231491 70.023308,183.234833 70.149391,182.767136 
	C72.079308,175.608368 66.501305,172.645615 62.383926,168.439575 
z"/>
<path fill="#EDEDED" opacity="1.000000" stroke="none" 
	d="
M15.118558,160.890060 
	C19.268007,163.161331 23.041813,165.370590 26.879171,167.617050 
	C29.710291,166.342117 33.288910,164.730576 36.867523,163.119034 
	C37.331158,163.619278 37.794792,164.119522 38.258427,164.619766 
	C36.710091,167.554230 35.688808,170.994415 33.480621,173.295700 
	C30.692036,176.201843 26.750189,178.006531 27.611355,183.098846 
	C27.692797,183.580429 25.978405,184.903503 25.168470,184.845673 
	C24.370197,184.788666 23.537598,183.554123 22.963293,182.676956 
	C22.648211,182.195740 22.729895,181.372208 22.813036,180.726242 
	C23.341822,176.617889 22.243942,173.799164 18.213490,171.546738 
	C13.977049,169.179169 12.968896,164.382980 15.118558,160.890060 
z"/>
<path fill="#EEEEEE" opacity="1.000000" stroke="none" 
	d="
M159.145432,165.319565 
	C158.969666,163.652603 158.897247,162.385941 158.720032,159.286224 
	C163.863327,162.586380 167.864456,165.153687 171.850067,167.711014 
	C174.799103,166.370209 178.386597,164.739136 183.077713,162.606277 
	C182.247482,168.784973 180.546280,172.811707 176.557800,175.226868 
	C173.973404,176.791840 172.787842,178.409958 172.897736,181.482925 
	C172.939072,182.639313 171.309021,183.855469 170.440918,185.044373 
	C169.616364,183.980362 167.971252,182.799759 168.103119,181.871658 
	C168.844742,176.652237 166.945877,173.228607 162.378891,170.649429 
	C160.884232,169.805328 160.267181,167.407272 159.145432,165.319565 
z"/>
<path fill="#E7E7E7" opacity="1.000000" stroke="none" 
	d="
M232.022400,34.366791 
	C227.705475,34.465565 224.400070,35.399067 222.812408,39.546989 
	C222.535049,40.271645 220.849869,41.054943 220.097763,40.836632 
	C219.305374,40.606625 218.308029,39.188400 218.339859,38.323910 
	C218.530899,33.133919 215.025711,31.241428 211.146851,29.292042 
	C209.701401,28.565605 208.806763,26.743196 207.660950,25.420536 
	C209.535690,25.150736 211.760773,24.108942 213.213821,24.768343 
	C216.456421,26.239868 219.313721,28.560471 222.207489,30.456184 
	C226.213715,30.151754 230.433578,29.500168 234.615463,29.689154 
	C236.120529,29.757168 237.534195,31.846931 238.989578,33.014046 
	C237.308197,33.550770 235.638504,34.130264 233.937424,34.594883 
	C233.498856,34.714668 232.961655,34.473320 232.022400,34.366791 
z"/>
<path fill="#E9E9E9" opacity="1.000000" stroke="none" 
	d="
M157.099365,47.519081 
	C153.127670,42.026604 148.260590,39.747597 141.661758,41.255894 
	C140.916534,41.426224 139.800140,39.972679 138.855865,39.272144 
	C139.761200,38.276485 140.635818,36.459885 141.577087,36.424656 
	C146.094162,36.255634 150.629272,36.568245 156.035629,36.737217 
	C158.343567,35.279091 161.668137,32.874569 165.289856,31.064684 
	C166.468155,30.475855 168.422623,31.440189 170.022079,31.694145 
	C169.139923,33.025806 168.552612,35.029057 167.322830,35.568939 
	C162.811478,37.549503 158.889709,39.627327 159.419983,45.567295 
	C159.472305,46.153446 158.149811,46.862324 157.099365,47.519081 
z"/>
<path fill="#E7E7E7" opacity="1.000000" stroke="none" 
	d="
M220.780975,139.847107 
	C219.988022,142.557312 219.385040,145.502167 217.645844,147.412674 
	C215.673431,149.579361 212.898102,150.889832 213.335388,154.528168 
	C213.392883,155.006592 211.982422,156.164566 211.371689,156.085236 
	C210.697983,155.997726 209.588440,154.780609 209.658615,154.169144 
	C210.168228,149.729324 208.173477,146.995682 204.705063,144.379745 
	C202.963684,143.066360 202.570511,139.965424 201.567627,137.672897 
	C202.047928,137.251373 202.528229,136.829865 203.008530,136.408340 
	C206.223923,138.408356 209.439331,140.408356 212.452789,142.282745 
	C214.974457,141.446716 217.721863,140.535843 220.780975,139.847107 
z"/>
<path fill="#EAEAEA" opacity="1.000000" stroke="none" 
	d="
M118.475067,140.476074 
	C119.869118,142.171280 120.700729,143.622879 122.996193,141.779648 
	C124.654816,140.447800 127.046898,140.029388 129.111862,139.203598 
	C129.482910,139.541443 129.853973,139.879272 130.225021,140.217117 
	C129.218445,142.312775 128.498383,144.621063 127.137978,146.454132 
	C125.111015,149.185333 120.819626,150.403290 121.697845,155.053772 
	C121.744995,155.303467 120.233315,156.275864 119.840034,156.088303 
	C119.095573,155.733276 118.055199,154.685928 118.151375,154.089722 
	C118.886742,149.531174 116.461067,147.015640 113.193085,144.346237 
	C111.492455,142.957108 111.154045,139.900284 110.200302,137.596756 
	C110.624756,137.248993 111.049217,136.901215 111.473671,136.553436 
	C113.721489,137.778717 115.969315,139.003983 118.475067,140.476074 
z"/>
<path fill="#EBEBEB" opacity="1.000000" stroke="none" 
	d="
M82.734077,145.683228 
	C80.540855,148.914215 75.710892,149.994110 76.714302,154.943298 
	C76.770844,155.222198 75.129700,156.249588 74.948227,156.102524 
	C74.159058,155.462952 72.970573,154.404495 73.093002,153.701172 
	C73.830887,149.462067 71.609932,147.237671 68.564110,144.770233 
	C66.705627,143.264664 66.135269,140.169022 64.986351,137.787552 
	C65.511551,137.341461 66.036751,136.895386 66.561951,136.449295 
	C69.645798,138.351059 72.729645,140.252823 76.232101,142.412720 
	C78.308609,141.552536 81.208313,140.351334 84.108009,139.150131 
	C84.450592,139.509338 84.793167,139.868546 85.135750,140.227753 
	C84.403557,141.945435 83.671371,143.663132 82.734077,145.683228 
z"/>
<path fill="#EAEAEA" opacity="1.000000" stroke="none" 
	d="
M160.411285,138.333130 
	C162.410461,139.858917 164.078735,141.196472 165.795624,142.573029 
	C168.477585,141.502335 171.379120,140.343979 174.280655,139.185623 
	C174.641663,139.591339 175.002686,139.997040 175.363693,140.402756 
	C174.171829,142.623917 173.349182,145.184647 171.696304,146.981842 
	C169.543915,149.322189 166.259613,150.708511 166.801132,154.779831 
	C166.849533,155.143692 165.216003,156.226822 164.655777,156.050049 
	C163.962540,155.831299 163.047852,154.573517 163.140778,153.888290 
	C163.719315,149.622665 161.968262,147.004120 158.467941,144.559174 
	C156.686234,143.314651 156.227753,140.175705 155.171127,137.893112 
	C155.502594,137.578995 155.834045,137.264862 156.165512,136.950745 
	C157.470459,137.348785 158.775421,137.746841 160.411285,138.333130 
z"/>
<path fill="#EAEAEA" opacity="1.000000" stroke="none" 
	d="
M21.849953,143.057800 
	C21.213518,141.045212 20.756073,139.356384 20.298630,137.667557 
	C20.680267,137.270065 21.061905,136.872574 21.443542,136.475082 
	C24.614582,138.410385 27.785620,140.345688 31.102732,142.370132 
	C33.394962,141.485596 36.294094,140.366852 39.193226,139.248123 
	C39.561657,139.709656 39.930088,140.171188 40.298515,140.632721 
	C38.790428,143.059128 37.651459,145.862762 35.668140,147.803513 
	C33.768959,149.661957 31.515259,150.847305 31.884125,154.078278 
	C31.953640,154.687180 30.487394,155.471420 29.729816,156.174759 
	C29.127516,155.487930 27.888792,154.630417 28.020226,154.140396 
	C29.524281,148.532928 25.021086,146.394867 21.849953,143.057800 
z"/>
<path fill="#E1E1E1" opacity="1.000000" stroke="none" 
	d="
M255.283646,45.324429 
	C251.679977,46.830601 249.465240,48.640869 249.484085,52.792282 
	C249.495499,55.309063 247.050217,56.325066 245.419037,53.966736 
	C243.088654,50.597530 240.123535,50.635864 236.677841,50.829975 
	C235.567871,50.892502 234.382690,49.619923 233.231934,48.958107 
	C234.108780,47.937038 235.078094,45.968185 235.847992,46.043289 
	C242.649628,46.706833 248.357773,44.295975 253.826477,40.631680 
	C254.519592,40.167271 256.096802,41.022301 257.264404,41.266037 
	C256.718109,42.568810 256.171783,43.871582 255.283646,45.324429 
z"/>
<path fill="#EDEDED" opacity="1.000000" stroke="none" 
	d="
M56.550396,25.438198 
	C54.802635,22.816339 49.791988,21.142563 53.226913,17.711367 
	C56.554028,14.387861 58.511688,18.996815 60.704391,20.768869 
	C62.623455,22.319784 64.622620,23.991970 65.903358,26.038122 
	C66.821053,27.504261 66.611298,29.676096 66.904564,31.533081 
	C65.178215,31.217859 63.172424,31.347071 61.793175,30.479832 
	C59.881088,29.277557 58.439789,27.326534 56.550396,25.438198 
z"/>
<path fill="#EBEBEB" opacity="1.000000" stroke="none" 
	d="
M40.600388,47.983616 
	C41.330353,46.651634 42.052265,44.914299 42.867767,44.869198 
	C47.793633,44.596760 52.747116,44.582260 57.675114,44.819309 
	C58.531811,44.860516 59.873497,46.456596 59.967113,47.432728 
	C60.059669,48.397842 58.883797,50.362385 58.215820,50.383923 
	C52.824066,50.557789 47.418987,50.425671 42.024342,50.220036 
	C41.538502,50.201519 41.097443,49.008083 40.600388,47.983616 
z"/>
<path fill="#E9E9E9" opacity="1.000000" stroke="none" 
	d="
M121.420883,50.819176 
	C117.331955,50.816128 113.650688,51.089046 110.053375,50.659210 
	C108.676384,50.494675 107.491333,48.723751 106.218811,47.684853 
	C107.626236,46.641933 108.945526,44.885601 110.458702,44.698662 
	C114.051903,44.254753 117.769005,44.272831 121.370163,44.682808 
	C122.956429,44.863396 124.382484,46.451313 125.881287,47.400284 
	C124.541527,48.538506 123.201775,49.676723 121.420883,50.819176 
z"/>
<path fill="#ECECEC" opacity="1.000000" stroke="none" 
	d="
M86.096230,7.108681 
	C86.239746,12.008558 86.508553,16.518612 86.150841,20.978413 
	C86.049522,22.241600 84.119247,23.358086 83.027771,24.541851 
	C82.049629,23.397787 80.333389,22.317623 80.227798,21.098019 
	C79.870293,16.968567 79.890816,12.778479 80.133247,8.632989 
	C80.367439,4.628366 82.402283,4.040131 86.096230,7.108681 
z"/>
<path fill="#E2E2E2" opacity="1.000000" stroke="none" 
	d="
M212.883606,117.754242 
	C211.448044,120.297401 209.900635,122.389076 208.552475,124.602127 
	C207.363632,126.553665 206.397202,128.640717 205.167160,130.982864 
	C202.215500,125.629112 199.468750,120.647049 196.722015,115.664993 
	C197.088028,115.273605 197.454041,114.882225 197.820053,114.490837 
	C200.396164,115.943977 202.972275,117.397118 205.382156,118.756493 
	C207.757690,118.311340 210.308029,117.833427 212.883606,117.754242 
z"/>
<path fill="#E2E2E2" opacity="1.000000" stroke="none" 
	d="
M46.756298,116.864029 
	C46.953533,118.382370 47.199657,120.142326 46.471912,121.278473 
	C44.463791,124.413498 42.048470,127.287697 39.316071,130.896500 
	C38.432240,128.211838 37.928368,125.374756 36.598080,123.000763 
	C35.213505,120.529892 33.030998,118.506142 31.197390,116.286888 
	C31.732418,115.700912 32.267445,115.114929 32.802475,114.528954 
	C35.476784,116.043205 38.151096,117.557449 40.826424,119.072273 
	C42.435287,118.417824 44.398052,117.619415 46.756298,116.864029 
z"/>
<path fill="#E5E5E5" opacity="1.000000" stroke="none" 
	d="
M73.952110,115.001923 
	C76.755569,116.337273 79.165596,117.686111 81.728500,119.120499 
	C83.556496,118.351204 85.844978,117.388123 88.133461,116.425041 
	C88.536926,116.858498 88.940399,117.291954 89.343864,117.725418 
	C87.858017,119.895454 86.336273,122.042023 84.896790,124.242393 
	C83.557198,126.290085 82.305191,128.395096 80.989624,130.515167 
	C80.756454,130.489761 80.182007,130.507370 80.163216,130.413635 
	C79.270111,125.956810 77.275681,122.203812 73.862450,119.074585 
	C73.133446,118.406250 73.627869,116.403442 73.952110,115.001923 
z"/>
<path fill="#E7E7E7" opacity="1.000000" stroke="none" 
	d="
M63.200371,72.170143 
	C61.413326,73.940315 60.085163,75.799026 58.287766,76.870811 
	C56.878654,77.711060 54.888824,77.577446 53.156994,77.876488 
	C53.354733,76.151657 52.953259,73.954926 53.867336,72.794220 
	C56.211819,69.817192 58.959991,67.073303 61.926132,64.712936 
	C63.088757,63.787754 65.263550,64.134521 66.977379,63.902012 
	C66.750000,65.644241 66.813423,67.499191 66.196625,69.090469 
	C65.759567,70.218040 64.403076,70.989227 63.200371,72.170143 
z"/>
<path fill="#E5E5E5" opacity="1.000000" stroke="none" 
	d="
M166.860962,124.110641 
	C165.761185,125.818840 165.059143,127.360992 164.151306,128.770599 
	C163.691833,129.484024 162.860458,129.957932 162.197220,130.540131 
	C161.741913,129.921280 160.815857,129.220490 160.907013,128.696762 
	C161.539673,125.061890 159.669769,123.046562 157.007431,120.952187 
	C155.593918,119.840210 155.192612,117.441566 154.334396,115.623734 
	C154.740845,115.244308 155.147293,114.864883 155.553757,114.485458 
	C158.132889,115.962753 160.712021,117.440041 163.569016,119.076492 
	C165.347198,118.347374 167.665604,117.396736 169.983994,116.446106 
	C170.339523,116.813667 170.695053,117.181221 171.050583,117.548782 
	C169.758255,119.662453 168.465927,121.776123 166.860962,124.110641 
z"/>
<path fill="#E5E5E5" opacity="1.000000" stroke="none" 
	d="
M119.056931,123.260666 
	C115.579536,121.360580 113.658127,118.978645 114.056190,114.088814 
	C117.244514,115.955002 119.830681,117.468735 122.664864,119.127640 
	C124.438698,118.373695 126.736511,117.397034 129.034332,116.420372 
	C129.402206,116.827400 129.770096,117.234428 130.137985,117.641457 
	C127.332428,121.972412 124.526878,126.303368 120.905617,131.893555 
	C120.254112,128.306320 119.816086,125.894524 119.056931,123.260666 
z"/>
<path fill="#EBEBEB" opacity="1.000000" stroke="none" 
	d="
M105.023727,30.314003 
	C102.934959,30.779379 101.106422,30.974510 99.277885,31.169640 
	C99.659149,29.441212 99.525627,27.293039 100.524399,26.068113 
	C102.908089,23.144678 105.660751,20.448671 108.615746,18.103498 
	C109.679268,17.259449 111.748199,17.682238 113.358299,17.526890 
	C113.228127,19.127302 113.682892,21.188660 112.855003,22.239256 
	C110.623528,25.071020 107.845230,27.471882 105.023727,30.314003 
z"/>
<path fill="#F2F2F2" opacity="1.000000" stroke="none" 
	d="
M105.066635,73.927643 
	C103.051247,71.903030 101.001427,70.316925 99.662659,68.266541 
	C98.982101,67.224251 99.581604,65.346169 99.602440,63.845909 
	C101.078110,63.928135 103.030144,63.437893 103.942505,64.197075 
	C107.004288,66.744812 109.912491,69.561943 112.418060,72.650307 
	C113.381157,73.837418 113.103699,76.030975 113.391495,77.765953 
	C111.652534,77.504349 109.802849,77.520859 108.211884,76.887497 
	C107.070824,76.433228 106.275780,75.109772 105.066635,73.927643 
z"/>
<path fill="#EDEDED" opacity="1.000000" stroke="none" 
	d="
M86.330948,81.940643 
	C85.668938,85.140205 88.154945,89.890190 83.385704,89.990807 
	C78.096031,90.102409 80.526329,85.134277 80.131393,82.273293 
	C79.795448,79.839607 79.680061,77.236046 80.206932,74.872559 
	C80.548492,73.340309 82.219948,72.104530 83.295532,70.735916 
	C84.303925,72.160965 85.801796,73.463112 86.198174,75.041817 
	C86.706100,77.064819 86.327530,79.310394 86.330948,81.940643 
z"/>
<path fill="#070707" opacity="1.000000" stroke="none" 
	d="
M73.148468,36.054707 
	C81.317947,30.657158 89.668648,31.408049 94.927948,37.754467 
	C100.142570,44.046989 99.739220,52.878002 93.978241,58.547684 
	C88.173027,64.260895 78.642136,64.407249 72.762665,58.873466 
	C66.216713,52.712391 66.253838,43.806526 73.148468,36.054707 
z"/>
</svg>